{
  "accessors": [
    {
      "bufferView": 2,
      "componentType": 5126,
      "count": 15634,
      "max": [
        355.13726806640625,
        280.1211242675781,
        2118.3935546875
      ],
      "min": [
        -339.21282958984375,
        -357.5074462890625,
        -0.5460860133171082
      ],
      "type": "VEC3"
    },
    {
      "bufferView": 2,
      "byteOffset": 187608,
      "componentType": 5126,
      "count": 15634,
      "max": [
        0.9999750256538391,
        0.9999845027923584,
        0.9999792575836182
      ],
      "min": [
        -0.9999814629554749,
        -0.9999610185623169,
        -0.9999970197677612
      ],
      "type": "VEC3"
    },
    {
      "bufferView": 3,
      "componentType": 5126,
      "count": 15634,
      "max": [
        0.9999997019767761,
        1.0,
        0.9999997615814209,
        1.0
      ],
      "min": [
        -0.9999984502792358,
        -1.0,
        -0.999999463558197,
        -1.0
      ],
      "type": "VEC4"
    },
    {
      "bufferView": 1,
      "componentType": 5126,
      "count": 15634,
      "max": [
        0.9660130143165588,
        0.9950000047683716
      ],
      "min": [
        0.004999999888241291,
        0.004999999888241291
      ],
      "type": "VEC2"
    },
    {
      "bufferView": 0,
      "componentType": 5125,
      "count": 72174,
      "type": "SCALAR"
    }
  ],
  "asset": {
    "extras": {
      "author": "SMK – National Gallery of Denmark (https://sketchfab.com/smkmuseum)",
      "license": "CC0-1.0 (http://creativecommons.org/publicdomain/zero/1.0/)",
      "source": "https://sketchfab.com/3d-models/venus-de-milo-statuestexturingchallenge-smk-2983d92ac4e744f485492580ca7629f2",
      "title": "Venus de Milo #StatuesTexturingChallenge [SMK]"
    },
    "generator": "Sketchfab-12.68.0",
    "version": "2.0"
  },
  "bufferViews": [
    {
      "buffer": 0,
      "byteLength": 288696,
      "name": "floatBufferViews",
      "target": 34963
    },
    {
      "buffer": 0,
      "byteLength": 125072,
      "byteOffset": 288696,
      "byteStride": 8,
      "name": "floatBufferViews",
      "target": 34962
    },
    {
      "buffer": 0,
      "byteLength": 375216,
      "byteOffset": 413768,
      "byteStride": 12,
      "name": "floatBufferViews",
      "target": 34962
    },
    {
      "buffer": 0,
      "byteLength": 250144,
      "byteOffset": 788984,
      "byteStride": 16,
      "name": "floatBufferViews",
      "target": 34962
    }
  ],
  "buffers": [
    {
      "byteLength": 1039128,
      "uri": "scene.bin"
    }
  ],
  "images": [
    {
      "uri": "textures/Default_metallicRoughness.png"
    },
    {
      "uri": "textures/Default_normal.jpeg"
    }
  ],
  "materials": [
    {
      "doubleSided": true,
      "name": "Default",
      "normalTexture": {
        "index": 1
      },
      "occlusionTexture": {
        "index": 0
      },
      "pbrMetallicRoughness": {
        "baseColorFactor": [
          0.6083370704,
          0.6083370704,
          0.6083370704,
          1.0
        ],
        "metallicFactor": 0.0,
        "metallicRoughnessTexture": {
          "index": 0
        }
      }
    }
  ],
  "meshes": [
    {
      "name": "Object_0",
      "primitives": [
        {
          "attributes": {
            "NORMAL": 1,
            "POSITION": 0,
            "TANGENT": 2,
            "TEXCOORD_0": 3
          },
          "indices": 4,
          "material": 0,
          "mode": 4
        }
      ]
    }
  ],
  "nodes": [
    {
      "children": [
        1
      ],
      "matrix": [
        1.0,
        0.0,
        0.0,
        0.0,
        0.0,
        2.220446049250313e-16,
        -1.0,
        0.0,
        0.0,
        1.0,
        2.220446049250313e-16,
        0.0,
        0.0,
        0.0,
        0.0,
        1.0
      ],
      "name": "Sketchfab_model"
    },
    {
      "children": [
        2
      ],
      "name": "retopo_2.obj.cleaner.materialmerger.gles"
    },
    {
      "mesh": 0,
      "name": "Object_2"
    }
  ],
  "samplers": [
    {
      "magFilter": 9729,
      "minFilter": 9987,
      "wrapS": 10497,
      "wrapT": 10497
    }
  ],
  "scene": 0,
  "scenes": [
    {
      "name": "Sketchfab_Scene",
      "nodes": [
        0
      ]
    }
  ],
  "textures": [
    {
      "sampler": 0,
      "source": 0
    },
    {
      "sampler": 0,
      "source": 1
    }
  ]
}
